# xmcd CD database file
#
# Track frame offsets:
#	150
#	14105
#	26761
#	42063
#	58483
#	75945
#	90428
#	106245
#	124543
#	138449
#	151088
#	164437
#	178829
#	196288
#	225040
#
# Disc length: 4099 seconds
#
# Revision: 0
# Processed by: cddbd v1.5.2PL0 Copyright (c) Steve Scherf et al.
# Submitted via: CDex 1.70beta2
#
DISCID=b310010f
DTITLE=Rodrigo Haddad - Ten years and more to come
DYEAR=2005
DGENRE=Country
TTITLE0=Ten years
TTITLE1=Like a Honky Tonk
TTITLE2=Someday
TTITLE3=The call
TTITLE4=Oh! amor
TTITLE5=The grass is always greener on the country side
TTITLE6=Last call for alcohol
TTITLE7=Rodeo
TTITLE8=Santra fe
TTITLE9=Nashville, TN
TTITLE10=I beg you please
TTITLE11=She's gone
TTITLE12=Singing the blues
TTITLE13=San Pedro mi amor
TTITLE14=Video clip - Like a honky tonk
EXTD=YEAR: 2005
EXTT0=
EXTT1=
EXTT2=
EXTT3=
EXTT4=
EXTT5=
EXTT6=
EXTT7=
EXTT8=
EXTT9=
EXTT10=
EXTT11=
EXTT12=
EXTT13=
EXTT14=
PLAYORDER=
